<?xml version="1.0" encoding="UTF-8"?>
<!-- Извлечено из docs/module-1/index.html скриптом tools/extract_svgs.py -->
<!-- aria-label: Плата-разветвитель ATX 24-pin -->
<svg viewBox="0 0 340 580" xmlns="http://www.w3.org/2000/svg" role="img" aria-label="Плата-разветвитель ATX 24-pin" style="max-width:360px">
          <defs>
            <linearGradient id="pcbGrad" x1="0" y1="0" x2="1" y2="1">
              <stop offset="0" stop-color="#2367B5"/>
              <stop offset="1" stop-color="#143F7A"/>
            </linearGradient>
            <linearGradient id="connGrad" x1="0" y1="0" x2="0" y2="1">
              <stop offset="0" stop-color="#FAFAFA"/>
              <stop offset="1" stop-color="#CFCFCF"/>
            </linearGradient>
            <radialGradient id="jackRed" cx="0.35" cy="0.3" r="0.7">
              <stop offset="0" stop-color="#FF7A6A"/>
              <stop offset="0.55" stop-color="#D8392B"/>
              <stop offset="1" stop-color="#7A1612"/>
            </radialGradient>
            <radialGradient id="jackBlack" cx="0.35" cy="0.3" r="0.7">
              <stop offset="0" stop-color="#555"/>
              <stop offset="0.55" stop-color="#1F1F1F"/>
              <stop offset="1" stop-color="#050505"/>
            </radialGradient>
            <linearGradient id="metalBase" x1="0" y1="0" x2="0" y2="1">
              <stop offset="0" stop-color="#F2F2F2"/>
              <stop offset="0.5" stop-color="#B8B8B8"/>
              <stop offset="1" stop-color="#7A7A7A"/>
            </linearGradient>
            <linearGradient id="fuseGlass" x1="0" y1="0" x2="0" y2="1">
              <stop offset="0" stop-color="#F8F5E0" stop-opacity="0.9"/>
              <stop offset="0.5" stop-color="#E8E0B5" stop-opacity="0.5"/>
              <stop offset="1" stop-color="#C9BD7A" stop-opacity="0.9"/>
            </linearGradient>
            <filter id="pcbShadow" x="-5%" y="-5%" width="110%" height="115%">
              <feDropShadow dx="0" dy="6" stdDeviation="6" flood-opacity="0.25"/>
            </filter>
          </defs>

          <!-- PCB (портретная ориентация) -->
          <rect x="20" y="20" width="300" height="540" rx="8" fill="url(#pcbGrad)" filter="url(#pcbShadow)"/>
          <rect x="20" y="20" width="300" height="540" rx="8" fill="none" stroke="#0E2E58" stroke-width="1"/>

          <!-- Монтажные отверстия -->
          <g fill="#F4F1EA" stroke="#8B7E5C" stroke-width="1">
            <circle cx="40" cy="40" r="6"/>
            <circle cx="300" cy="40" r="6"/>
            <circle cx="40" cy="540" r="6"/>
            <circle cx="300" cy="540" r="6"/>
          </g>

          <!-- Декоративные дорожки -->
          <g stroke="#FFFFFF22" stroke-width="1" fill="none">
            <path d="M 140 120 L 210 120"/>
            <path d="M 140 220 L 210 220"/>
            <path d="M 140 320 L 210 320"/>
            <path d="M 140 420 L 210 420"/>
            <path d="M 90 380 L 90 470"/>
          </g>

          <!-- Шильдик -->
          <text x="170" y="556" text-anchor="middle" font-family="monospace" font-size="8" fill="#B3D1F0" letter-spacing="1.5">ATX BREAKOUT · 24-PIN · 128×48</text>

          <!-- LED индикатор питания (верх, слева) -->
          <g transform="translate(70, 70)">
            <circle cx="0" cy="0" r="6" fill="#D8392B">
              <animate attributeName="fill-opacity" values="1;0.35;1" dur="1.6s" repeatCount="indefinite"/>
            </circle>
            <circle cx="0" cy="0" r="6" fill="none" stroke="#7A1612" stroke-width="1"/>
            <text x="14" y="3" font-family="sans-serif" font-size="9" fill="#B3D1F0">Power LED</text>
          </g>

          <!-- 24-pin разъём (горизонтально лежит на плате, слева по центру) -->
          <g transform="translate(50, 200)">
            <!-- корпус разъёма -->
            <rect x="0" y="0" width="85" height="160" rx="3" fill="url(#connGrad)" stroke="#999" stroke-width="1"/>
            <!-- 2 ряда по 12 контактов вертикально -->
            <g fill="#2A2A2A">
              <!-- левый ряд -->
              <rect x="8"  y="6"   width="14" height="10" rx="1"/>
              <rect x="8"  y="18"  width="14" height="10" rx="1"/>
              <rect x="8"  y="30"  width="14" height="10" rx="1"/>
              <rect x="8"  y="42"  width="14" height="10" rx="1"/>
              <rect x="8"  y="54"  width="14" height="10" rx="1"/>
              <rect x="8"  y="66"  width="14" height="10" rx="1"/>
              <rect x="8"  y="78"  width="14" height="10" rx="1"/>
              <rect x="8"  y="90"  width="14" height="10" rx="1"/>
              <rect x="8"  y="102" width="14" height="10" rx="1"/>
              <rect x="8"  y="114" width="14" height="10" rx="1"/>
              <rect x="8"  y="126" width="14" height="10" rx="1"/>
              <rect x="8"  y="138" width="14" height="10" rx="1"/>
              <!-- правый ряд -->
              <rect x="28" y="6"   width="14" height="10" rx="1"/>
              <rect x="28" y="18"  width="14" height="10" rx="1"/>
              <rect x="28" y="30"  width="14" height="10" rx="1"/>
              <rect x="28" y="42"  width="14" height="10" rx="1"/>
              <rect x="28" y="54"  width="14" height="10" rx="1"/>
              <rect x="28" y="66"  width="14" height="10" rx="1"/>
              <rect x="28" y="78"  width="14" height="10" rx="1"/>
              <rect x="28" y="90"  width="14" height="10" rx="1"/>
              <rect x="28" y="102" width="14" height="10" rx="1"/>
              <rect x="28" y="114" width="14" height="10" rx="1"/>
              <rect x="28" y="126" width="14" height="10" rx="1"/>
              <rect x="28" y="138" width="14" height="10" rx="1"/>
            </g>
            <!-- защёлка (сбоку) -->
            <rect x="46" y="70" width="8" height="26" rx="2" fill="#C4C4C4" stroke="#888"/>
            <text x="60" y="155" font-family="sans-serif" font-size="8" fill="#ffffff88">24-pin</text>
          </g>

          <!-- Предохранитель (стеклянный, горизонтально, центр-лево) -->
          <g transform="translate(60, 400)">
            <!-- металлические колпачки -->
            <rect x="-4" y="-6" width="10" height="12" rx="1.5" fill="url(#metalBase)" stroke="#777"/>
            <rect x="54" y="-6" width="10" height="12" rx="1.5" fill="url(#metalBase)" stroke="#777"/>
            <!-- стеклянная трубка -->
            <rect x="6" y="-4" width="48" height="8" rx="1" fill="url(#fuseGlass)" stroke="#8B7E5C" stroke-width="0.5"/>
            <!-- нить накала -->
            <path d="M 10 0 L 15 -2 L 20 0 L 25 2 L 30 0 L 35 -2 L 40 0 L 45 2 L 50 0" stroke="#555" stroke-width="0.8" fill="none"/>
            <text x="30" y="22" text-anchor="middle" font-family="sans-serif" font-size="8" fill="#B3D1F0">предохранитель</text>
          </g>

          <!-- Тумблер ON/OFF (низ-слева) -->
          <g transform="translate(70, 470)">
            <rect x="-22" y="-12" width="44" height="24" rx="2" fill="#1A1A1A" stroke="#555"/>
            <rect x="-16" y="-8" width="14" height="16" rx="2" fill="#E8E8E8"/>
            <rect x="2"   y="-8" width="14" height="16" rx="2" fill="#3A3A3A"/>
            <text x="-9" y="3" text-anchor="middle" font-size="8" font-weight="bold" fill="#1A1A1A">ON</text>
            <text x="9"  y="3" text-anchor="middle" font-size="8" font-weight="bold" fill="#999">OFF</text>
          </g>

          <!-- ============================ -->
          <!-- БАНАНОВЫЕ КЛЕММЫ — 4 пары справа -->
          <!-- Каждая пара: GND (чёрная) + V (красная) -->
          <!-- ============================ -->

          <!-- Универсальный шаблон клеммы через use. Но здесь — развёрнуто. -->

          <!-- ПАРА 1: +3.3V (верх) -->
          <g transform="translate(0, 105)">
            <!-- GND -->
            <g transform="translate(215, 0)">
              <rect x="-16" y="-5" width="32" height="14" rx="2" fill="url(#metalBase)"/>
              <rect x="-13" y="-26" width="26" height="22" rx="3" fill="#FFFFFF" opacity="0.35"/>
              <ellipse cx="0" cy="-34" rx="14" ry="7" fill="url(#jackBlack)"/>
              <rect x="-13" y="-40" width="26" height="10" rx="2" fill="url(#jackBlack)"/>
              <g fill="url(#jackBlack)">
                <rect x="-15" y="-40" width="4" height="8"/>
                <rect x="-7"  y="-42" width="4" height="8"/>
                <rect x="1"   y="-42" width="4" height="8"/>
                <rect x="9"   y="-40" width="4" height="8"/>
              </g>
            </g>
            <text x="215" y="30" text-anchor="middle" font-family="monospace" font-size="10" fill="#ffffffcc" font-weight="bold">GND</text>
            <!-- +3.3V -->
            <g transform="translate(275, 0)">
              <rect x="-16" y="-5" width="32" height="14" rx="2" fill="url(#metalBase)"/>
              <rect x="-13" y="-26" width="26" height="22" rx="3" fill="#FFFFFF" opacity="0.35"/>
              <ellipse cx="0" cy="-34" rx="14" ry="7" fill="url(#jackRed)"/>
              <rect x="-13" y="-40" width="26" height="10" rx="2" fill="url(#jackRed)"/>
              <g fill="url(#jackRed)">
                <rect x="-15" y="-40" width="4" height="8"/>
                <rect x="-7"  y="-42" width="4" height="8"/>
                <rect x="1"   y="-42" width="4" height="8"/>
                <rect x="9"   y="-40" width="4" height="8"/>
              </g>
            </g>
            <text x="275" y="30" text-anchor="middle" font-family="monospace" font-size="10" fill="#E8A33D" font-weight="bold">+3.3V</text>
          </g>

          <!-- ПАРА 2: +5V -->
          <g transform="translate(0, 205)">
            <g transform="translate(215, 0)">
              <rect x="-16" y="-5" width="32" height="14" rx="2" fill="url(#metalBase)"/>
              <rect x="-13" y="-26" width="26" height="22" rx="3" fill="#FFFFFF" opacity="0.35"/>
              <ellipse cx="0" cy="-34" rx="14" ry="7" fill="url(#jackBlack)"/>
              <rect x="-13" y="-40" width="26" height="10" rx="2" fill="url(#jackBlack)"/>
              <g fill="url(#jackBlack)">
                <rect x="-15" y="-40" width="4" height="8"/>
                <rect x="-7"  y="-42" width="4" height="8"/>
                <rect x="1"   y="-42" width="4" height="8"/>
                <rect x="9"   y="-40" width="4" height="8"/>
              </g>
            </g>
            <text x="215" y="30" text-anchor="middle" font-family="monospace" font-size="10" fill="#ffffffcc" font-weight="bold">GND</text>
            <g transform="translate(275, 0)">
              <rect x="-16" y="-5" width="32" height="14" rx="2" fill="url(#metalBase)"/>
              <rect x="-13" y="-26" width="26" height="22" rx="3" fill="#FFFFFF" opacity="0.35"/>
              <ellipse cx="0" cy="-34" rx="14" ry="7" fill="url(#jackRed)"/>
              <rect x="-13" y="-40" width="26" height="10" rx="2" fill="url(#jackRed)"/>
              <g fill="url(#jackRed)">
                <rect x="-15" y="-40" width="4" height="8"/>
                <rect x="-7"  y="-42" width="4" height="8"/>
                <rect x="1"   y="-42" width="4" height="8"/>
                <rect x="9"   y="-40" width="4" height="8"/>
              </g>
            </g>
            <text x="275" y="30" text-anchor="middle" font-family="monospace" font-size="10" fill="#D4503A" font-weight="bold">+5V</text>
          </g>

          <!-- ПАРА 3: +12V -->
          <g transform="translate(0, 305)">
            <g transform="translate(215, 0)">
              <rect x="-16" y="-5" width="32" height="14" rx="2" fill="url(#metalBase)"/>
              <rect x="-13" y="-26" width="26" height="22" rx="3" fill="#FFFFFF" opacity="0.35"/>
              <ellipse cx="0" cy="-34" rx="14" ry="7" fill="url(#jackBlack)"/>
              <rect x="-13" y="-40" width="26" height="10" rx="2" fill="url(#jackBlack)"/>
              <g fill="url(#jackBlack)">
                <rect x="-15" y="-40" width="4" height="8"/>
                <rect x="-7"  y="-42" width="4" height="8"/>
                <rect x="1"   y="-42" width="4" height="8"/>
                <rect x="9"   y="-40" width="4" height="8"/>
              </g>
            </g>
            <text x="215" y="30" text-anchor="middle" font-family="monospace" font-size="10" fill="#ffffffcc" font-weight="bold">GND</text>
            <g transform="translate(275, 0)">
              <rect x="-16" y="-5" width="32" height="14" rx="2" fill="url(#metalBase)"/>
              <rect x="-13" y="-26" width="26" height="22" rx="3" fill="#FFFFFF" opacity="0.35"/>
              <ellipse cx="0" cy="-34" rx="14" ry="7" fill="url(#jackRed)"/>
              <rect x="-13" y="-40" width="26" height="10" rx="2" fill="url(#jackRed)"/>
              <g fill="url(#jackRed)">
                <rect x="-15" y="-40" width="4" height="8"/>
                <rect x="-7"  y="-42" width="4" height="8"/>
                <rect x="1"   y="-42" width="4" height="8"/>
                <rect x="9"   y="-40" width="4" height="8"/>
              </g>
            </g>
            <text x="275" y="30" text-anchor="middle" font-family="monospace" font-size="10" fill="#F0C040" font-weight="bold">+12V</text>
          </g>

          <!-- ПАРА 4: -12V -->
          <g transform="translate(0, 405)">
            <g transform="translate(215, 0)">
              <rect x="-16" y="-5" width="32" height="14" rx="2" fill="url(#metalBase)"/>
              <rect x="-13" y="-26" width="26" height="22" rx="3" fill="#FFFFFF" opacity="0.35"/>
              <ellipse cx="0" cy="-34" rx="14" ry="7" fill="url(#jackBlack)"/>
              <rect x="-13" y="-40" width="26" height="10" rx="2" fill="url(#jackBlack)"/>
              <g fill="url(#jackBlack)">
                <rect x="-15" y="-40" width="4" height="8"/>
                <rect x="-7"  y="-42" width="4" height="8"/>
                <rect x="1"   y="-42" width="4" height="8"/>
                <rect x="9"   y="-40" width="4" height="8"/>
              </g>
            </g>
            <text x="215" y="30" text-anchor="middle" font-family="monospace" font-size="10" fill="#ffffffcc" font-weight="bold">GND</text>
            <g transform="translate(275, 0)">
              <rect x="-16" y="-5" width="32" height="14" rx="2" fill="url(#metalBase)"/>
              <rect x="-13" y="-26" width="26" height="22" rx="3" fill="#FFFFFF" opacity="0.35"/>
              <ellipse cx="0" cy="-34" rx="14" ry="7" fill="url(#jackRed)"/>
              <rect x="-13" y="-40" width="26" height="10" rx="2" fill="url(#jackRed)"/>
              <g fill="url(#jackRed)">
                <rect x="-15" y="-40" width="4" height="8"/>
                <rect x="-7"  y="-42" width="4" height="8"/>
                <rect x="1"   y="-42" width="4" height="8"/>
                <rect x="9"   y="-40" width="4" height="8"/>
              </g>
            </g>
            <text x="275" y="30" text-anchor="middle" font-family="monospace" font-size="10" fill="#A8A8FF" font-weight="bold">−12V</text>
          </g>

        </svg>
