<?xml version="1.0" encoding="UTF-8"?>
<!-- Извлечено из docs/module-1/index.html скриптом tools/extract_svgs.py -->
<!-- aria-label: Схема соединений Модуля 1 -->
<svg viewBox="0 0 800 540" xmlns="http://www.w3.org/2000/svg" role="img" aria-label="Схема соединений Модуля 1">
  <style>
    .bd-comp   { fill:#FFFFFF; stroke:#1F3A5F; stroke-width:2 }
    .bd-pico   { fill:#E8F0F9 }
    .bd-relay  { fill:#E8F4EC }
    .bd-led    { fill:#FDECEA }
    .bd-atx    { fill:#F5F5F0 }
    .bd-btn    { fill:#FFF4E0 }
    .bd-source { fill:#FFE6D9 }
    .bd-load   { fill:#FDECEA }
    .bd-ctrl   { fill:#E8F4EC }
    .bd-wires  { fill:#F0F0F0 }
    .bd-title  { font:bold 14px sans-serif; fill:#1F3A5F }
    .bd-sub    { font:10px sans-serif; fill:#6B6B6B }
    .bd-section{ font:italic 10px sans-serif; fill:#8B8B8B }
    .bd-pin    { fill:#FFFFFF; stroke:#1F3A5F; stroke-width:1.5 }
    .bd-pinlbl { font:11px monospace; fill:#1F3A5F }
    .bd-wire   { stroke-width:2.5; fill:none; stroke-linecap:round; stroke-linejoin:round }
    .bd-wlbl   { font:bold 10px monospace }
  </style>

          <style>
            .bd-comp   { fill: #FFFFFF; stroke: #1F3A5F; stroke-width: 2 }
            .bd-pico   { fill: #E8F0F9 }
            .bd-relay  { fill: #E8F4EC }
            .bd-led    { fill: #FDECEA }
            .bd-atx    { fill: #F5F5F0 }
            .bd-title  { font: bold 14px sans-serif; fill: #1F3A5F }
            .bd-sub    { font: 10px sans-serif; fill: #6B6B6B }
            .bd-section{ font: italic 10px sans-serif; fill: #8B8B8B }
            .bd-pin    { fill: #FFFFFF; stroke: #1F3A5F; stroke-width: 1.5 }
            .bd-pinlbl { font: 11px monospace; fill: #1F3A5F }
            .bd-wire   { stroke-width: 2.5; fill: none; stroke-linecap: round; stroke-linejoin: round }
            .bd-wlbl   { font: bold 10px monospace }
          </style>

          <!-- ATX (внизу, широкий) -->
          <rect x="40" y="400" width="720" height="80" rx="8" class="bd-comp bd-atx"/>
          <text x="60" y="428" class="bd-title">БЛОК ATX</text>
          <text x="60" y="444" class="bd-sub">источник питания</text>

          <circle cx="200" cy="400" r="5" class="bd-pin"/>
          <text x="200" y="392" text-anchor="middle" class="bd-pinlbl">+5V</text>

          <circle cx="320" cy="400" r="5" class="bd-pin"/>
          <text x="320" y="392" text-anchor="middle" class="bd-pinlbl">+12V</text>

          <circle cx="440" cy="400" r="5" fill="#E8A33D" stroke="#8B6F18" stroke-width="2"/>
          <text x="440" y="392" text-anchor="middle" class="bd-pinlbl" font-weight="bold">+3.3V</text>

          <circle cx="580" cy="400" r="5" fill="#2B2B2B" stroke="#000" stroke-width="1.5"/>
          <text x="580" y="392" text-anchor="middle" class="bd-pinlbl" font-weight="bold">GND</text>

          <circle cx="700" cy="400" r="5" fill="#2B2B2B" stroke="#000" stroke-width="1.5"/>
          <text x="700" y="392" text-anchor="middle" class="bd-pinlbl" font-weight="bold">GND</text>

          <!-- PICO (слева сверху) -->
          <rect x="40" y="80" width="200" height="160" rx="8" class="bd-comp bd-pico"/>
          <text x="60" y="108" class="bd-title">Pi PICO</text>
          <text x="60" y="124" class="bd-sub">микроконтроллер 3.3V</text>

          <circle cx="240" cy="150" r="5" class="bd-pin"/>
          <text x="230" y="154" text-anchor="end" class="bd-pinlbl">GND</text>

          <circle cx="240" cy="185" r="5" class="bd-pin"/>
          <text x="230" y="189" text-anchor="end" class="bd-pinlbl">3V3</text>

          <circle cx="240" cy="220" r="5" class="bd-pin"/>
          <text x="230" y="224" text-anchor="end" class="bd-pinlbl">GP15</text>

          <!-- RELAY (центр) -->
          <rect x="340" y="80" width="220" height="260" rx="8" class="bd-comp bd-relay"/>
          <text x="360" y="108" class="bd-title">РЕЛЕ 1 канал</text>
          <text x="360" y="124" class="bd-sub">JQC-3FF-S-Z · джампер H</text>

          <!-- управление (левая сторона) — DC+ сверху, DC− в центре, IN снизу -->
          <text x="360" y="150" class="bd-section">управление:</text>
          <circle cx="340" cy="170" r="5" class="bd-pin"/>
          <text x="350" y="174" class="bd-pinlbl">DC+</text>

          <circle cx="340" cy="200" r="5" class="bd-pin"/>
          <text x="350" y="204" class="bd-pinlbl">DC−</text>

          <circle cx="340" cy="230" r="5" class="bd-pin"/>
          <text x="350" y="234" class="bd-pinlbl">IN</text>

          <!-- силовые (правая сторона) -->
          <text x="540" y="150" text-anchor="end" class="bd-section">силовые:</text>
          <circle cx="560" cy="170" r="5" class="bd-pin"/>
          <text x="550" y="174" text-anchor="end" class="bd-pinlbl">COM</text>

          <circle cx="560" cy="220" r="5" class="bd-pin"/>
          <text x="550" y="224" text-anchor="end" class="bd-pinlbl">NO</text>

          <circle cx="560" cy="270" r="5" class="bd-pin"/>
          <text x="550" y="274" text-anchor="end" class="bd-pinlbl" style="fill:#AAA">NC</text>
          <text x="550" y="286" text-anchor="end" style="font:italic 9px sans-serif;fill:#AAA">не используем</text>

          <!-- LED (справа) -->
          <rect x="640" y="150" width="120" height="120" rx="8" class="bd-comp bd-led"/>
          <text x="660" y="178" class="bd-title">LED 3 Вт</text>
          <text x="660" y="194" class="bd-sub">красный</text>

          <circle cx="640" cy="215" r="5" fill="#C94C4C" stroke="#8B1A1A" stroke-width="2"/>
          <text x="650" y="219" class="bd-pinlbl" font-weight="bold">+</text>

          <circle cx="640" cy="248" r="5" fill="#2B2B2B" stroke="#000" stroke-width="1.5"/>
          <text x="650" y="252" class="bd-pinlbl" font-weight="bold">−</text>

          <!-- ========== ПРОВОДА ========== -->
          <!-- 1. Pico 3V3 → Relay DC+ (сверху) -->
          <path d="M 240 185 L 290 185 L 290 170 L 340 170" class="bd-wire" stroke="#E8A33D"/>
          <text x="290" y="165" text-anchor="middle" class="bd-wlbl" fill="#B8822A">3.3V</text>

          <!-- 2. Pico GND → Relay DC− (середина) -->
          <path d="M 240 150 L 290 150 L 290 200 L 340 200" class="bd-wire" stroke="#2B2B2B"/>
          <text x="290" y="215" text-anchor="middle" class="bd-wlbl" fill="#2B2B2B">GND</text>

          <!-- 3. Pico GP15 → Relay IN (СИГНАЛ — красный!) -->
          <path d="M 240 220 L 290 220 L 290 230 L 340 230" class="bd-wire" stroke="#C94C4C"/>
          <text x="290" y="245" text-anchor="middle" class="bd-wlbl" fill="#C94C4C">GP15 (сигнал)</text>

          <!-- 4. ATX +3.3V → Relay COM (через верх) -->
          <path d="M 440 400 L 440 50 L 560 50 L 560 170" class="bd-wire" stroke="#E8A33D"/>
          <text x="500" y="42" text-anchor="middle" class="bd-wlbl" fill="#B8822A">+3.3V (сила)</text>

          <!-- 5. Relay NO → LED + -->
          <path d="M 560 220 L 640 215" class="bd-wire" stroke="#F0C040"/>
          <text x="600" y="210" text-anchor="middle" class="bd-wlbl" fill="#9B7F20">нагрузка</text>

          <!-- 6. LED − → ATX GND -->
          <path d="M 640 248 L 700 248 L 700 400" class="bd-wire" stroke="#2B2B2B"/>
          <text x="712" y="330" class="bd-wlbl" fill="#2B2B2B">GND</text>

          <!-- Легенда -->
          <g transform="translate(40, 510)" font-family="sans-serif" font-size="11">
            <line x1="0" y1="0" x2="26" y2="0" stroke="#C94C4C" stroke-width="2.5" stroke-linecap="round"/>
            <text x="32" y="4" fill="#333">сигнал (3.3V от Pico)</text>

            <line x1="180" y1="0" x2="206" y2="0" stroke="#E8A33D" stroke-width="2.5" stroke-linecap="round"/>
            <text x="212" y="4" fill="#333">питание</text>

            <line x1="290" y1="0" x2="316" y2="0" stroke="#2B2B2B" stroke-width="2.5" stroke-linecap="round"/>
            <text x="322" y="4" fill="#333">GND (земля)</text>

            <line x1="420" y1="0" x2="446" y2="0" stroke="#F0C040" stroke-width="2.5" stroke-linecap="round"/>
            <text x="452" y="4" fill="#333">силовая к LED</text>
          </g>
        </svg>
