<?xml version="1.0" encoding="UTF-8"?>
<!-- Извлечено из docs/module-1/index.html скриптом tools/extract_svgs.py -->
<!-- aria-label: Схема 4.3 — цепь с реле (управление кнопкой) -->
<svg viewBox="0 0 800 540" xmlns="http://www.w3.org/2000/svg" role="img" aria-label="Схема 4.3 — цепь с реле (управление кнопкой)">
            <!-- ATX внизу -->
            <rect x="40" y="400" width="720" height="80" rx="8" class="bd-comp bd-atx"/>
            <text x="60" y="428" class="bd-title">БЛОК ATX</text>
            <text x="60" y="444" class="bd-sub">источник питания</text>

            <circle cx="200" cy="400" r="5" fill="#E8A33D" stroke="#8B6F18" stroke-width="2"/>
            <text x="200" y="392" text-anchor="middle" class="bd-pinlbl" font-weight="bold">+3.3V</text>

            <circle cx="420" cy="400" r="5" fill="#E8A33D" stroke="#8B6F18" stroke-width="2"/>
            <text x="420" y="392" text-anchor="middle" class="bd-pinlbl" font-weight="bold">+3.3V</text>

            <circle cx="580" cy="400" r="5" fill="#2B2B2B" stroke="#000" stroke-width="1.5"/>
            <text x="580" y="392" text-anchor="middle" class="bd-pinlbl" font-weight="bold">GND</text>

            <circle cx="700" cy="400" r="5" fill="#2B2B2B" stroke="#000" stroke-width="1.5"/>
            <text x="700" y="392" text-anchor="middle" class="bd-pinlbl" font-weight="bold">GND</text>

            <!-- КНОПКА (слева сверху, на месте Pico) -->
            <rect x="40" y="80" width="200" height="130" rx="8" class="bd-comp bd-btn"/>
            <text x="60" y="108" class="bd-title">КНОПКА</text>
            <text x="60" y="124" class="bd-sub">палец управляет током</text>

            <circle cx="240" cy="150" r="5" class="bd-pin"/>
            <text x="230" y="154" text-anchor="end" class="bd-pinlbl">1</text>

            <circle cx="240" cy="190" r="5" class="bd-pin"/>
            <text x="230" y="194" text-anchor="end" class="bd-pinlbl">2</text>

            <!-- РЕЛЕ (центр) -->
            <rect x="340" y="80" width="220" height="260" rx="8" class="bd-comp bd-relay"/>
            <text x="360" y="108" class="bd-title">РЕЛЕ 1 канал</text>
            <text x="360" y="124" class="bd-sub">SRD-05VDC</text>

            <text x="360" y="150" class="bd-section">управление:</text>
            <circle cx="340" cy="170" r="5" class="bd-pin"/>
            <text x="350" y="174" class="bd-pinlbl">GND</text>

            <circle cx="340" cy="200" r="5" class="bd-pin"/>
            <text x="350" y="204" class="bd-pinlbl">VCC</text>

            <circle cx="340" cy="230" r="5" class="bd-pin"/>
            <text x="350" y="234" class="bd-pinlbl">IN</text>

            <text x="540" y="150" text-anchor="end" class="bd-section">силовые:</text>
            <circle cx="560" cy="170" r="5" class="bd-pin"/>
            <text x="550" y="174" text-anchor="end" class="bd-pinlbl">COM</text>

            <circle cx="560" cy="220" r="5" class="bd-pin"/>
            <text x="550" y="224" text-anchor="end" class="bd-pinlbl">NO</text>

            <circle cx="560" cy="270" r="5" class="bd-pin"/>
            <text x="550" y="274" text-anchor="end" class="bd-pinlbl" style="fill:#AAA">NC</text>
            <text x="550" y="286" text-anchor="end" style="font:italic 9px sans-serif;fill:#AAA">не используем</text>

            <!-- LED справа -->
            <rect x="640" y="150" width="120" height="120" rx="8" class="bd-comp bd-led"/>
            <text x="660" y="178" class="bd-title">LED 3 Вт</text>
            <text x="660" y="194" class="bd-sub">красный</text>

            <circle cx="640" cy="215" r="5" fill="#C94C4C" stroke="#8B1A1A" stroke-width="2"/>
            <text x="650" y="219" class="bd-pinlbl" font-weight="bold">+</text>

            <circle cx="640" cy="248" r="5" fill="#2B2B2B" stroke="#000" stroke-width="1.5"/>
            <text x="650" y="252" class="bd-pinlbl" font-weight="bold">−</text>

            <!-- ПРОВОДА -->
            <!-- 1. ATX +3.3V → Кнопка 1 -->
            <path d="M 200 400 L 200 260 L 140 260 L 140 220 L 140 210" class="bd-wire" stroke="#E8A33D"/>
            <text x="150" y="280" class="bd-wlbl" fill="#B8822A">+3.3V</text>
            <path d="M 140 210 L 140 150 L 240 150" class="bd-wire" stroke="#E8A33D"/>

            <!-- 2. Кнопка 2 → Relay IN -->
            <path d="M 240 190 L 300 190 L 300 230 L 340 230" class="bd-wire" stroke="#C94C4C"/>
            <text x="300" y="215" text-anchor="middle" class="bd-wlbl" fill="#C94C4C">сигнал</text>

            <!-- 3. ATX +3.3V (второй) → Relay VCC -->
            <path d="M 420 400 L 420 360 L 310 360 L 310 200 L 340 200" class="bd-wire" stroke="#E8A33D"/>
            <text x="370" y="355" class="bd-wlbl" fill="#B8822A">+3.3V (VCC)</text>

            <!-- 4. ATX GND → Relay GND -->
            <path d="M 580 400 L 580 380 L 320 380 L 320 170 L 340 170" class="bd-wire" stroke="#2B2B2B"/>
            <text x="480" y="374" class="bd-wlbl" fill="#2B2B2B">GND</text>

            <!-- 5. ATX +3.3V (через верх) → Relay COM (силовая) -->
            <path d="M 420 400 L 420 50 L 560 50 L 560 170" class="bd-wire" stroke="#F0C040"/>
            <text x="490" y="42" text-anchor="middle" class="bd-wlbl" fill="#9B7F20">+3.3V (сила)</text>

            <!-- 6. Relay NO → LED + -->
            <path d="M 560 220 L 640 215" class="bd-wire" stroke="#F0C040"/>

            <!-- 7. LED − → ATX GND -->
            <path d="M 640 248 L 700 248 L 700 400" class="bd-wire" stroke="#2B2B2B"/>

            <!-- Легенда -->
            <g transform="translate(40, 510)" font-family="sans-serif" font-size="11">
              <line x1="0" y1="0" x2="26" y2="0" stroke="#C94C4C" stroke-width="2.5" stroke-linecap="round"/>
              <text x="32" y="4" fill="#333">сигнал управления</text>
              <line x1="180" y1="0" x2="206" y2="0" stroke="#E8A33D" stroke-width="2.5" stroke-linecap="round"/>
              <text x="212" y="4" fill="#333">питание</text>
              <line x1="290" y1="0" x2="316" y2="0" stroke="#2B2B2B" stroke-width="2.5" stroke-linecap="round"/>
              <text x="322" y="4" fill="#333">GND</text>
              <line x1="370" y1="0" x2="396" y2="0" stroke="#F0C040" stroke-width="2.5" stroke-linecap="round"/>
              <text x="402" y="4" fill="#333">силовая к LED</text>
            </g>
          </svg>
