<?xml version="1.0" encoding="UTF-8"?>
<!-- Извлечено из docs/module-1/index.html скриптом tools/extract_svgs.py -->
<!-- aria-label: Цепь с кнопкой -->
<svg viewBox="0 0 720 220" xmlns="http://www.w3.org/2000/svg" role="img" aria-label="Цепь с кнопкой">
            <rect x="40"  y="70" width="140" height="80" rx="8" class="bd-comp bd-atx"/>
            <text x="110" y="100" text-anchor="middle" class="bd-title">БЛОК ATX</text>
            <circle cx="180" cy="95" r="5" fill="#E8A33D" stroke="#8B6F18" stroke-width="2"/>
            <text x="175" y="92" text-anchor="end" class="bd-pinlbl" font-weight="bold">+3.3V</text>
            <circle cx="180" cy="130" r="5" fill="#2B2B2B" stroke="#000" stroke-width="1.5"/>
            <text x="175" y="127" text-anchor="end" class="bd-pinlbl" font-weight="bold">GND</text>

            <rect x="280" y="70" width="140" height="80" rx="8" class="bd-comp bd-btn"/>
            <text x="350" y="100" text-anchor="middle" class="bd-title">КНОПКА</text>
            <text x="350" y="118" text-anchor="middle" class="bd-sub">механический контакт</text>
            <circle cx="280" cy="95" r="5" class="bd-pin"/>
            <text x="290" y="99" class="bd-pinlbl">1</text>
            <circle cx="420" cy="95" r="5" class="bd-pin"/>
            <text x="410" y="99" text-anchor="end" class="bd-pinlbl">2</text>

            <rect x="520" y="70" width="140" height="80" rx="8" class="bd-comp bd-led"/>
            <text x="590" y="100" text-anchor="middle" class="bd-title">LED</text>
            <circle cx="520" cy="95" r="5" fill="#C94C4C" stroke="#8B1A1A" stroke-width="2"/>
            <text x="530" y="99" class="bd-pinlbl" font-weight="bold">+</text>
            <circle cx="520" cy="130" r="5" fill="#2B2B2B" stroke="#000" stroke-width="1.5"/>
            <text x="530" y="134" class="bd-pinlbl" font-weight="bold">−</text>

            <path d="M 180 95 L 280 95" class="bd-wire" stroke="#E8A33D"/>
            <text x="230" y="88" text-anchor="middle" class="bd-wlbl" fill="#B8822A">+3.3V</text>
            <path d="M 420 95 L 520 95" class="bd-wire" stroke="#F0C040"/>
            <text x="470" y="88" text-anchor="middle" class="bd-wlbl" fill="#9B7F20">к LED+</text>
            <path d="M 520 130 L 200 130 L 180 130" class="bd-wire" stroke="#2B2B2B"/>
            <text x="360" y="146" text-anchor="middle" class="bd-wlbl" fill="#2B2B2B">GND</text>

            <text x="360" y="195" text-anchor="middle" style="font:italic 11px sans-serif;fill:#5A5A5A">кнопка нажата → контакт замкнут → LED горит · отпустили → разрыв → LED гаснет</text>
          </svg>
